<svg id="visual" viewBox="0 0 540 960" width="540" height="960" xmlns="http://www.w3.org/2000/svg" xmlns:xlink="http://www.w3.org/1999/xlink" version="1.1"><path d="M434 960L424 937.2C414 914.3 394 868.7 393.7 823C393.3 777.3 412.7 731.7 421 686C429.3 640.3 426.7 594.7 416.5 548.8C406.3 503 388.7 457 380.3 411.2C372 365.3 373 319.7 389 274C405 228.3 436 182.7 439.7 137C443.3 91.3 419.7 45.7 407.8 22.8L396 0L540 0L540 22.8C540 45.7 540 91.3 540 137C540 182.7 540 228.3 540 274C540 319.7 540 365.3 540 411.2C540 457 540 503 540 548.8C540 594.7 540 640.3 540 686C540 731.7 540 777.3 540 823C540 868.7 540 914.3 540 937.2L540 960Z" fill="#fff"></path></svg>